<?xml version="1.0" standalone="no"?> <!DOCTYPE svg PUBLIC "-//W3C//DTD SVG 20010904//EN" "http://www.w3.org/TR/2001/REC-SVG-20010904/DTD/svg10.dtd"> <svg version="1.0" xmlns="http://www.w3.org/2000/svg" width="1800.000000pt" height="1800.000000pt" viewBox="0 0 1800.000000 1800.000000" preserveAspectRatio="xMidYMid meet"> <g transform="translate(0.000000,1800.000000) scale(0.100000,-0.100000)" fill="#ffffff" stroke="none"> <path d="M3450 13923 c-74 -18 -150 -63 -198 -117 -56 -64 -79 -123 -91 -230 -16 -139 -15 -9134 1 -9226 13 -81 45 -145 97 -198 45 -45 81 -66 165 -93 57 -19 131 -19 3022 -19 2647 0 2968 2 3011 15 144 47 224 127 259 260 11 41 14 589 14 3105 0 1958 4 3060 10 3070 8 12 110 -86 502 -481 305 -307 508 -503 533 -516 125 -63 243 -70 350 -20 53 25 119 88 546 518 268 269 491 489 498 489 8 0 11 -781 11 -3043 0 -2155 3 -3061 11 -3102 6 -33 19 -75 29 -95 23 -45 97 -129 124 -141 12 -5 28 -13 36 -18 8 -5 39 -16 69 -25 47 -14 168 -16 1055 -16 903 0 1006 2 1051 16 149 49 231 135 262 274 16 76 19 9197 2 9286 -16 82 -43 136 -102 200 -57 62 -94 84 -187 108 -60 16 -153 17 -1125 14 -1167 -4 -1095 0 -1207 -66 -51 -30 -217 -176 -433 -382 -80 -76 -131 -124 -339 -315 -60 -55 -114 -105 -120 -111 -6 -5 -63 -57 -126 -114 -63 -57 -116 -107 -118 -112 -2 -4 -14 -8 -27 -8 -23 0 -72 43 -311 269 -205 195 -431 409 -504 477 -41 39 -89 84 -105 100 -164 159 -236 213 -323 241 -54 17 -122 18 -1222 18 -1298 0 -1219 4 -1318 -69 -66 -48 -86 -72 -124 -146 l-33 -65 -3 -3550 c-1 -1952 -2 -3556 -2 -3563 0 -10 -132 -12 -642 -10 l-643 3 -5 3545 c-4 2530 -9 3555 -16 3580 -18 57 -36 92 -72 139 -40 54 -80 84 -152 114 l-55 22 -995 2 c-867 1 -1003 -1 -1060 -14z m1650 -4228 c3 -1958 10 -3573 14 -3590 23 -81 110 -176 201 -220 39 -20 75 -20 1865 -23 1004 -1 1833 -2 1843 -2 16 0 17 -34 17 -575 l0 -575 -22 -5 c-13 -3 -1177 -4 -2588 -3 l-2565 3 -3 4265 c-1 2346 0 4271 3 4278 3 10 132 12 617 10 l613 -3 5 -3560z m4486 3543 c16 -12 54 -45 84 -73 30 -28 91 -85 135 -125 44 -40 109 -101 145 -135 36 -33 130 -121 210 -195 80 -74 150 -139 156 -145 6 -5 36 -33 65 -60 30 -28 90 -84 134 -125 44 -41 123 -115 175 -164 136 -130 186 -160 287 -176 66 -10 92 -10 135 1 53 13 135 60 179 102 13 13 74 68 134 122 61 55 133 120 160 145 28 26 86 80 130 120 44 41 128 119 186 174 58 56 123 117 145 136 64 58 299 273 304 279 3 3 38 35 79 71 l74 65 806 0 806 0 0 -4275 0 -4275 -615 0 -615 0 -5 3345 c-5 3079 -6 3348 -22 3388 -53 139 -170 220 -319 221 -143 2 -201 -33 -394 -231 -358 -368 -1161 -1178 -1174 -1183 -9 -4 -68 50 -170 156 -86 88 -392 399 -681 689 l-525 528 -64 21 c-188 61 -360 -5 -452 -174 l-33 -60 -2 -2435 -2 -2435 -626 -3 -626 -2 0 3358 c0 1847 3 3362 7 3365 3 4 401 7 883 7 l877 0 29 -22z"/> </g> </svg>