<?xml version="1.0" standalone="no"?>
<!DOCTYPE svg PUBLIC "-//W3C//DTD SVG 20010904//EN"
 "http://www.w3.org/TR/2001/REC-SVG-20010904/DTD/svg10.dtd">
<svg version="1.0" xmlns="http://www.w3.org/2000/svg"
 width="1800.000000pt" height="1800.000000pt" viewBox="0 0 1800.000000 1800.000000"
 preserveAspectRatio="xMidYMid meet">
<g transform="translate(0.000000,1800.000000) scale(0.100000,-0.100000)"
fill="#000000" stroke="none">
<path d="M0 9000 l0 -9000 9000 0 9000 0 0 9000 0 9000 -9000 0 -9000 0 0
-9000z m5560 4913 c115 -48 183 -125 224 -253 7 -25 12 -1050 16 -3580 l5
-3545 643 -3 c510 -2 642 0 642 10 0 7 1 1611 2 3563 l3 3550 33 65 c38 74 58
98 124 146 99 73 20 69 1318 69 1100 0 1168 -1 1222 -18 87 -28 159 -82 323
-241 16 -16 64 -61 105 -100 73 -68 299 -282 504 -477 239 -226 288 -269 311
-269 13 0 25 4 27 8 2 5 55 55 118 112 63 57 120 109 126 114 6 6 60 56 120
111 208 191 259 239 339 315 216 206 382 352 433 382 112 66 40 62 1207 66
972 3 1065 2 1125 -14 93 -24 130 -46 187 -108 59 -64 86 -118 102 -200 17
-89 14 -9210 -2 -9286 -31 -139 -113 -225 -262 -274 -45 -14 -148 -16 -1051
-16 -887 0 -1008 2 -1055 16 -30 9 -61 20 -69 25 -8 5 -24 13 -36 18 -27 12
-101 96 -124 141 -10 20 -23 62 -29 95 -8 41 -11 947 -11 3102 0 2262 -3 3043
-11 3043 -7 0 -230 -220 -498 -489 -427 -430 -493 -493 -546 -518 -107 -50
-225 -43 -350 20 -25 13 -228 209 -533 516 -392 395 -494 493 -502 481 -6 -10
-10 -1112 -10 -3070 0 -2516 -3 -3064 -14 -3105 -35 -133 -115 -213 -259 -260
-43 -13 -364 -15 -3011 -15 -2891 0 -2965 0 -3022 19 -84 27 -120 48 -165 93
-52 53 -84 117 -97 198 -16 92 -17 9087 -1 9226 16 144 66 230 174 299 101 65
75 64 1175 62 l995 -2 55 -22z"/>
<path d="M3865 13248 c-3 -7 -4 -1932 -3 -4278 l3 -4265 2565 -3 c1411 -1
2575 0 2588 3 l22 5 0 575 c0 541 -1 575 -17 575 -10 0 -839 1 -1843 2 -1790
3 -1826 3 -1865 23 -91 44 -178 139 -201 220 -4 17 -11 1632 -14 3590 l-5
3560 -613 3 c-485 2 -614 0 -617 -10z"/>
<path d="M7797 13253 c-4 -3 -7 -1518 -7 -3365 l0 -3358 626 2 626 3 2 2435 2
2435 33 60 c92 169 264 235 452 174 l64 -21 525 -528 c289 -290 595 -601 681
-689 102 -106 161 -160 170 -156 13 5 816 815 1174 1183 193 198 251 233 394
231 149 -1 266 -82 319 -221 16 -40 17 -309 22 -3388 l5 -3345 615 0 615 0 0
4275 0 4275 -806 0 -806 0 -74 -65 c-41 -36 -76 -68 -79 -71 -5 -6 -240 -221
-304 -279 -22 -19 -87 -80 -145 -136 -58 -55 -142 -133 -186 -174 -44 -40
-102 -94 -130 -120 -27 -25 -99 -90 -160 -145 -60 -54 -121 -109 -134 -122
-44 -42 -126 -89 -179 -102 -43 -11 -69 -11 -135 -1 -101 16 -151 46 -287 176
-52 49 -131 123 -175 164 -44 41 -104 97 -134 125 -29 27 -59 55 -65 60 -6 6
-76 71 -156 145 -80 74 -174 162 -210 195 -36 34 -101 95 -145 135 -44 40
-105 97 -135 125 -30 28 -68 61 -84 73 l-29 22 -877 0 c-482 0 -880 -3 -883
-7z"/>
</g>
</svg>
