<?xml version="1.0" standalone="no"?>
<!DOCTYPE svg PUBLIC "-//W3C//DTD SVG 20010904//EN"
 "http://www.w3.org/TR/2001/REC-SVG-20010904/DTD/svg10.dtd">
<svg version="1.0" xmlns="http://www.w3.org/2000/svg"
 width="600.000000pt" height="600.000000pt" viewBox="0 0 600.000000 600.000000"
 preserveAspectRatio="xMidYMid meet">
<g transform="translate(0.000000,600.000000) scale(0.100000,-0.100000)"
fill="#000000" stroke="none">
<path d="M1131 4632 c-19 -9 -44 -30 -55 -45 l-21 -28 0 -1563 c0 -1496 1
-1563 18 -1590 39 -58 -3 -56 1084 -56 983 0 998 0 1031 20 65 40 62 -14 62
1112 l0 1022 173 -171 c144 -143 178 -172 209 -178 69 -13 85 -2 261 177 l167
171 1 -1019 c0 -762 3 -1028 12 -1054 7 -20 27 -44 47 -58 l34 -23 357 3 c345
3 359 4 386 24 15 11 33 36 40 55 15 44 18 3064 3 3120 -5 19 -24 48 -41 65
l-30 29 -367 3 c-235 2 -380 -1 -402 -7 -23 -7 -83 -56 -175 -141 -77 -72
-164 -152 -193 -177 l-52 -46 -60 54 c-32 30 -120 111 -194 181 -99 93 -144
129 -168 133 -18 3 -210 5 -426 3 l-394 -3 -34 -37 -34 -38 0 -1195 0 -1195
-215 0 -215 0 0 1178 c0 1145 -1 1178 -20 1220 -32 71 -40 72 -422 72 -297 0
-337 -2 -367 -18z m571 -1404 c3 -1121 4 -1195 21 -1219 9 -14 29 -31 43 -37
18 -9 196 -12 639 -12 l615 0 0 -195 0 -195 -865 0 -865 0 0 1425 0 1425 205
0 205 0 2 -1192z m1703 997 c228 -212 254 -228 317 -201 18 7 125 100 238 204
l205 191 273 1 272 0 0 -1425 0 -1425 -205 0 -205 0 -2 1123 c-3 1053 -4 1124
-21 1148 -33 49 -109 64 -158 31 -14 -9 -123 -116 -242 -237 l-216 -220 -235
235 -236 235 -56 0 c-52 0 -58 -3 -85 -35 l-29 -34 0 -818 0 -818 -210 0 -210
0 0 1120 0 1120 298 0 298 0 209 -195z"/>
</g>
</svg>
